<?xml version="1.0" encoding="utf-8"?>
<!-- Generator: Adobe Illustrator 18.1.1, SVG Export Plug-In . SVG Version: 6.00 Build 0)  -->
<svg version="1.1" id="Layer_1" xmlns="http://www.w3.org/2000/svg" xmlns:xlink="http://www.w3.org/1999/xlink" x="0px" y="0px"
	 viewBox="-431 233 96 96" enable-background="new -431 233 96 96" xml:space="preserve">
<path d="M-383,246.9c-18.8,0-34.1,15.3-34.1,34.1s15.3,34.1,34.1,34.1c18.8,0,34.1-15.3,34.1-34.1S-364.2,246.9-383,246.9z
	 M-383.6,294.3c-7.7,0-13.9-6.2-13.9-13.9c0-0.8,0.7-1.5,1.5-1.5s1.5,0.7,1.5,1.5c0,6,4.9,10.9,10.9,10.9s10.9-4.9,10.9-10.9
	c0-5.3-3.8-9.7-8.8-10.7l2.1,3.8c0.4,0.7,0.1,1.6-0.6,2c-0.2,0.1-0.5,0.2-0.7,0.2c-0.5,0-1-0.3-1.3-0.8l-3.4-6.3
	c-0.3-0.5-0.2-1.2,0.2-1.7l4.7-5.5c0.5-0.6,1.5-0.7,2.1-0.2c0.6,0.5,0.7,1.5,0.2,2.1l-2.9,3.4c6.5,1.1,11.5,6.8,11.5,13.6
	C-369.7,288-375.9,294.3-383.6,294.3L-383.6,294.3z"/>
</svg>
