<?xml version="1.0" encoding="utf-8"?>
<!-- Generator: Adobe Illustrator 18.1.1, SVG Export Plug-In . SVG Version: 6.00 Build 0)  -->
<svg version="1.1" id="Layer_1" xmlns="http://www.w3.org/2000/svg" xmlns:xlink="http://www.w3.org/1999/xlink" x="0px" y="0px"
	 viewBox="280 0 594 560" enable-background="new 280 0 594 560" xml:space="preserve">
<g id="Captions">
	<rect x="-1374.6" y="-2023.6" width="767.2" height="410.5"/>
	<rect x="-578.3" y="-2173.1" width="415" height="124.3"/>
	<text transform="matrix(1 0 0 1 -304.317 -2104.4062)" font-family="'Helvetica'" font-size="9.9557">http://thenounproject.com</text>
	<text transform="matrix(1 0 0 1 -548.3674 -2125.1477)" font-family="'Helvetica-Bold'" font-size="25.5433">The Noun Project</text>
	<text transform="matrix(1 0 0 1 -543.7213 -2105.239)" font-family="'Helvetica-Bold'" font-size="16.5928">Icon Template</text>
	<text transform="matrix(1 0 0 1 -1318.5389 -1979.9648)" font-family="'Helvetica-Bold'" font-size="25.5433">Reminders</text>
	<line fill="none" stroke="#FFFFFF" stroke-miterlimit="10" x1="-544.7" y1="-2083.5" x2="-503.3" y2="-2083.5"/>
	<line fill="none" stroke="#FFFFFF" stroke-miterlimit="10" x1="-1320.9" y1="-1955.2" x2="-1250.3" y2="-1955.2"/>
	<g>
		<g>
			<g>
				<rect x="-1286.7" y="-1893.6" width="36.4" height="35.8"/>
				<path d="M-1260.4-1848.3h19.6v-19.6h-19.6V-1848.3z M-1238.5-1846h-23.5v-23h23.5V-1846L-1238.5-1846z M-1267.7-1841h34.2v-34.2
					h-34.2V-1841L-1267.7-1841z M-1231.3-1838.8h-38.1v-37.5h38.1V-1838.8L-1231.3-1838.8z"/>
				<polygon points="-1267.1,-1840.4 -1267.7,-1841 -1233.5,-1875.2 -1232.9,-1874.6 				"/>
			</g>
		</g>
	</g>
	<rect x="-1320.9" y="-1782.8" fill="none" width="145" height="135"/>
	<text transform="matrix(1 0 0 1 -1320.6096 -1774.0938)" font-family="'Helvetica-Bold'" font-size="12.4443">Strokes</text>
	<text transform="matrix(1 0 0 1 -1320.6096 -1753.3523)" font-family="'Helvetica'" font-size="9.9557">Try to keep strokes at 4px</text>
	<text transform="matrix(1 0 0 1 -1320.6096 -1732.6082)" font-family="'Helvetica'" font-size="9.9557">Minimum stroke weight is 2px</text>
	<text transform="matrix(1 0 0 1 -1320.6096 -1713.9448)" font-family="'Helvetica'" font-size="9.9557">For thicker strokes use even </text>
	<text transform="matrix(1 0 0 1 -1320.6096 -1701.4961)" font-family="'Helvetica'" font-size="9.9557">numbers: 6px, 8px etc.</text>
	<text transform="matrix(1 0 0 1 -1320.6096 -1682.8328)" font-family="'Helvetica-Bold'" font-size="9.9557">Remember to expand strokes </text>
	<text transform="matrix(1 0 0 1 -1320.6096 -1670.3862)" font-family="'Helvetica-Bold'" font-size="9.9557">before saving as an SVG </text>
	<rect x="-1144.5" y="-1782.8" fill="none" width="145" height="135"/>
	<text transform="matrix(1 0 0 1 -1144.317 -1774.0938)" font-family="'Helvetica-Bold'" font-size="12.4443">Size</text>
	<text transform="matrix(1 0 0 1 -1144.317 -1753.3523)" font-family="'Helvetica'" font-size="9.9557">Cannot be wider or taller than </text>
	<text transform="matrix(1 0 0 1 -1144.317 -1738.8328)" font-family="'Helvetica'" font-size="9.9557">100px (artboard size)</text>
	<text transform="matrix(1 0 0 1 -1144.317 -1718.0938)" font-family="'Helvetica'" font-size="9.9557">Scale your icon to fill as much of </text>
	<text transform="matrix(1 0 0 1 -1144.317 -1705.6472)" font-family="'Helvetica'" font-size="9.9557">the artboard as possible</text>
	<rect x="-968.1" y="-1782.8" fill="none" width="145" height="135"/>
	<text transform="matrix(1 0 0 1 -968.0194 -1774.0938)" font-family="'Helvetica-Bold'" font-size="12.4443">Ungroup</text>
	<text transform="matrix(1 0 0 1 -968.0194 -1753.3523)" font-family="'Helvetica'" font-size="9.9557">If your design has more than one </text>
	<text transform="matrix(1 0 0 1 -968.0194 -1740.9058)" font-family="'Helvetica'" font-size="9.9557">shape, make sure to ungroup</text>
	<rect x="-785.5" y="-1782.8" fill="none" width="145" height="135"/>
	<text transform="matrix(1 0 0 1 -785.4998 -1774.0938)" font-family="'Helvetica-Bold'" font-size="12.4443">Save as</text>
	<text transform="matrix(1 0 0 1 -785.4998 -1753.3523)" font-family="'Helvetica'" font-size="9.9557">Save as .SVG and make sure “Use </text>
	<text transform="matrix(1 0 0 1 -785.4998 -1740.9058)" font-family="'Helvetica'" font-size="9.9557">Artboards” is checked</text>
	<text transform="matrix(1.0074 0 0 1 -1098.8604 -1896.6138)" font-family="'Helvetica'" font-size="10.6736">100px</text>
	<text transform="matrix(1.0074 0 0 1 -748.1694 -1861.7432)" font-family="'Helvetica-Bold'" font-size="21.3472">.SVG</text>
	<rect x="-1103" y="-1879.1" width="42.6" height="42"/>
	<rect x="-1102.5" y="-1892" width="2.2" height="9.5"/>
	<rect x="-1062.7" y="-1892" width="2.2" height="9.5"/>
	<rect x="-1104.7" y="-1889.2" width="46.5" height="2.2"/>
	<g>
		<rect x="-925.5" y="-1883" width="42.6" height="42"/>
		<rect x="-896.9" y="-1904.3" width="14" height="13.4"/>
	</g>
	<rect x="-1318.6" y="-1930" stroke="#FFFFFF" stroke-miterlimit="10" width="124.3" height="124.3"/>
	<rect x="-1144.5" y="-1930" stroke="#FFFFFF" stroke-miterlimit="10" width="124.3" height="124.3"/>
	<rect x="-965.8" y="-1930" stroke="#FFFFFF" stroke-miterlimit="10" width="124.3" height="124.3"/>
	<rect x="-783.3" y="-1930" stroke="#FFFFFF" stroke-miterlimit="10" width="124.3" height="124.3"/>
</g>
<g id="Your_Icon">
	<g>
		<path d="M1718.2-358.1c-67.8,0-122.6,54.9-122.6,122.6c0,47,26.3,87.4,65,108.1c1.1-4.5,2.8-9,5.6-13.4
			c-11.2-5-19.6-16.8-19.6-29.7v-122.6c0-17.9,14.6-32.5,32.5-32.5h81.2c17.9,0,33,14.6,33,32.5v122.6c0,14.6-9.5,26.9-23,30.8
			c2.2,3.9,3.9,8.4,5,11.8c38.6-20.7,65-61,65-108.1C1840.9-303.8,1786-358.1,1718.2-358.1z"/>
		<path d="M1772.5-205.8h-104.2v34.7c0,6.7,5,11.8,11.8,11.8h81.2c6.7,0,11.8-5,11.8-11.8L1772.5-205.8L1772.5-205.8z M1689.1-168.8
			c-5,0-9-3.9-9-9c0-5,3.9-9,9-9c5,0,9,3.9,9,9C1698.1-172.8,1694.1-168.8,1689.1-168.8z M1754.1-168.8c-5,0-9-3.9-9-9
			c0-5,3.9-9,9-9s9,3.9,9,9C1763.6-172.8,1759.1-168.8,1754.1-168.8z"/>
		<path d="M1772.5-293.7c0-6.7-5-11.8-11.8-11.8h-81.2c-6.7,0-11.8,5-11.8,11.8v66.6h104.2L1772.5-293.7L1772.5-293.7z"/>
		<path d="M1718.2-443.2c-114.8,0-207.2,93-207.2,207.2c0,114.8,93,207.2,207.2,207.2s207.2-93,207.2-207.2
			C1926-350.3,1833-443.2,1718.2-443.2z M1718.2-92.7c-79,0-143.4-64.4-143.4-143.4s64.4-143.4,143.4-143.4s143.4,64.4,143.4,143.4
			S1797.7-92.7,1718.2-92.7z"/>
		<path d="M1746.2-138h-56c-3.4,2.8-9.5,12.9-9.5,17.4h-2.8c12.3,4.5,25.8,6.7,40.3,6.7c14.6,0,27.4-2.2,40.3-6.7h-2.8
			C1755.7-125.2,1750.1-135.2,1746.2-138z"/>
	</g>
	<g>
		<path d="M2380.7-271.3C2380.7-271.3,2380.1-271.3,2380.7-271.3l-33-2.2l-22.4-42c0,0-7.3-9-9-10.1c19.6-7.8,30.2-33,18.5-44.2
			c-2.8-2.8-5.6-3.9-8.4-3.9c-12.9,0-27.4,21.8-24.6,41.4c-1.7-0.6-3.4-0.6-5.6-0.6c-9,0-22.4,4.5-30.8,9
			c-11.2,6.2-42.6,24.1-42.6,24.1l2.2,51c0,0-0.6,15.7,10.1,16.2h0.6c9,0,9-16.8,9-16.8l-1.1-39.8l35.3-11.2l-66.6,175.8
			c0,0-7.8,12.9,4.5,18.5c2.2,1.1,3.9,1.1,5.6,1.1c7.8,0,10.6-9,10.6-9l40.9-89l50.4,31.4l16.2,51.5c0,0,4.5,12.3,12.9,12.3
			c1.7,0,2.8-0.6,4.5-1.1c8.4-3.9,4.5-19,4.5-19l-19-57.7l-49.8-39.8l20.2-58.2l24.6,30.2l40.9,2.8c0,0,0,0,0.6,0
			c1.7,0,10.1-0.6,10.1-10.1C2389.7-270.8,2381.8-271.3,2380.7-271.3z"/>
		<path d="M2291.1-443.2c-114.8,0-207.2,93-207.2,207.2c0,114.8,93,207.2,207.2,207.2c114.8,0,207.2-93,207.2-207.2
			S2405.3-443.2,2291.1-443.2z M2401.4-240.5c-7.8,7.8-17.9,9-21.8,9h-1.1h-0.6l-40.9-2.8l-8.4-0.6l-5-6.7l-2.2-3.4l-4.5,12.3
			l39.2,31.4l4.5,3.4l1.7,5.6l19,57.7v0.6v0.6c4.5,15.7,1.1,34.7-15.1,42c-3.9,1.7-8.4,2.8-12.3,2.8c-16.8,0-27.4-13.4-31.4-25.8
			l-14.6-44.8l-25.8-15.7l-30.8,67.8c-3.9,11.2-14,21.3-28.6,21.3c-4.5,0-9-1.1-13.4-2.8c-8.4-3.9-14.6-10.6-17.4-18.5
			c-3.4-11.2,0.6-21.3,2.8-25.8l31.4-81.8c-13.4-5-20.2-19.6-20.2-33.6l-2.2-50.4l-0.6-11.8l10.1-5.6c1.1-0.6,31.9-18.5,43.1-24.1
			c7.3-3.9,17.4-7.8,27.4-9.5c2.2-10.1,6.7-19.6,13.4-27.4c8.4-9.5,18.5-14.6,29.1-14.6c8.4,0,16.2,3.4,22.4,9.5
			c9,9,12.3,21.8,9.5,35.3c-2.2,10.1-7.3,19-14,26.3l15.7,29.7l21.8,1.7c13.4,0.6,28,10.6,28,29.1
			C2409.8-251.2,2405.3-244.4,2401.4-240.5z"/>
	</g>
	<g>
		<path d="M-67.1,279.2l-8.4,35.3c7.8,0.6,19.6,0.6,33-2.8C-45.8,298.2-54.7,286.4-67.1,279.2z"/>
		<path d="M-101.2,332.4l14-59.4c-1.7,0-3.4-0.6-5-0.6c-28,0-50.4,22.4-50.4,50.4s22.4,50.4,50.4,50.4c24.1,0,43.7-16.8,48.7-39.2
			c-9,1.7-17.4,2.2-24.1,2.2C-81.1,336.3-101.2,332.4-101.2,332.4z"/>
		<path d="M-62,258.4c19,9,33.6,26.3,39.2,47c2.2-1.1,3.9-1.7,6.2-2.8l-37.5-76.2L-62,258.4z"/>
		<path d="M1.3,79.2c-114.8,0-207.2,93-207.2,207.2c0,114.8,93,207.2,207.2,207.2c114.8,0,207.2-93,207.2-207.2S115.5,79.2,1.3,79.2
			z M102.6,394c-39.2,0-71.1-31.9-71.1-71.1c0-26.3,14.6-48.7,35.3-61.6l-6.7-22.4c-14,33.6-33,59.4-57.7,75.6
			c-7.8,5.6-16.2,9.5-24.1,12.3c-2.2,37-33,66.6-71.1,66.6c-39.2,0-71.1-31.9-71.1-71.1s31.9-71.1,71.1-71.1c3.4,0,6.7,0.6,9.5,1.1
			l12.3-52.6h-18.5l-4.5-21.3l69.4,4.5v16.8h-20.7l44.8,90.7c21.8-18.5,38.6-47.6,49.3-85.7L41,178.9l61-15.1v18.5l-35.3,9.5
			l17.9,62.7c5-1.1,10.6-2.2,16.2-2.2c39.2,0,71.1,31.9,71.1,71.1C173.7,362,141.8,394,102.6,394z"/>
		<path d="M102.6,272.4c-3.4,0-7.3,0.6-10.1,1.1l15.1,51.5l-20.2,6.2l-14-48.7c-12.3,9-20.7,23.5-20.7,40.3
			c0,28,22.4,50.4,50.4,50.4s50.4-22.4,50.4-50.4C153,294.8,130.6,272.4,102.6,272.4z"/>
	</g>
	<g>
		<path d="M1250.1-853.7h-219c-7.3,0-15.1,0-21.8,13.4l-14.6,42.6l14.6,43.1h16.8h11.2c0,11.2,9,20.7,20.7,20.7
			c11.2,0,20.7-9,20.7-20.7h28h54.3h44.2c0,11.2,9,20.7,20.7,20.7c11.2,0,20.7-9,20.7-20.7h3.4h43.1l10.6-43.1
			c0,0-38.6-48.7-41.4-51C1257.9-852,1254-853.7,1250.1-853.7z"/>
		<polygon points="1173.9,-917 1127.4,-946.1 1081.5,-917 1127.4,-885.6 		"/>
		<path d="M1145.9-1016.1c-114.8,0-207.2,93-207.2,207.2c0,114.8,93,207.2,207.2,207.2c114.8,0,207.2-93,207.2-207.2
			C1353.7-923.2,1260.7-1016.1,1145.9-1016.1z M1316.1-749.6l-4.5,18.5H1292h-29.1c-7.8,12.3-21.8,20.7-37.5,20.7
			s-29.7-8.4-37.5-20.7H1161h-54.3h-10.6c-7.8,12.3-21.8,20.7-37.5,20.7c-15.7,0-29.7-8.4-37.5-20.7h-10.6h-17.4l-5.6-16.8
			L972.9-791l-2.8-7.8l2.8-7.8l14.6-42.6l0.6-1.7l0.6-1.7c13.4-26.9,34.7-26.9,43.7-26.9h69.4l-30.8-20.7l-26.9-17.9l27.4-17.4
			l46.5-29.1l11.2-7.3l11.2,7.3l46.5,29.1l27.4,17.4l-26.9,17.9l-30.8,20.7h95.2c10.1,0,19.6,3.9,28,10.6c1.7,1.7,4.5,3.9,44.2,53.8
			l7.8,9.5l-2.8,11.8L1316.1-749.6z"/>
	</g>
	<g>
		<path d="M1736.7-873.9H1688v-11.2c0-6.2-5-10.6-10.6-10.6c-6.2,0-10.6,5-10.6,10.6v11.2h-48.3c-5.6,0-45.4,48.2-45.4,48.2v48.7
			h40.9c0,11.2,9,20.7,20.7,20.7c11.2,0,20.7-9,20.7-20.7h23.5h44.8h35.8c0,11.2,9,20.7,20.7,20.7c11.2,0,20.7-9,20.7-20.7h3.4h63.8
			v-27.4c0,0-107-63.8-110.3-65.5C1751.8-872.2,1745.7-873.9,1736.7-873.9z"/>
		<path d="M1718.2-1016.1c-114.8,0-207.2,93-207.2,207.2c0,114.8,93,207.2,207.2,207.2s207.2-93,207.2-207.2
			C1926-923.2,1833-1016.1,1718.2-1016.1z M1890.7-777v24.6h-24.6h-49.8c-7.8,12.3-21.8,20.7-37.5,20.7s-29.7-8.4-37.5-20.7h-18.5
			H1678h-6.2c-7.8,12.3-21.8,20.7-37.5,20.7s-29.7-8.4-37.5-20.7h-23.5h-24.8V-777v-48.7v-9l5.6-6.7c47-57.1,53.8-57.1,64.4-57.1
			h26.3c5-12.9,17.9-21.8,32.5-21.8s27.4,9,32.5,21.8h26.9c11.2,0,21.3,2.2,30.2,6.7c3.9,1.7,63.3,37,112,66.6l11.8,7.3v14
			L1890.7-777L1890.7-777z"/>
	</g>
	<g>
		<path d="M706.3-866.6H439.7c-7.3,0-12.9,6.2-12.9,12.9v39.2v52.6h8.4h15.7c0,11.2,9,20.2,20.2,20.2s20.2-9,20.2-20.2h40.3h54.3
			h35.3c0,11.2,9,20.2,20.2,20.2s20.2-9,20.2-20.2h3.4h54.9v-52.6v-39.2C719.7-860.4,713.6-866.6,706.3-866.6z"/>
		<path d="M573.6-1016.1c-114.8,0-207.2,93-207.2,207.2c0,114.8,93,207.2,207.2,207.2s207.2-93,207.2-207.2
			S688.4-1016.1,573.6-1016.1z M744.4-761.3v24.6h-24.6h-41.4c-7.8,12.3-21.8,20.2-37.5,20.2s-29.7-7.8-37.5-20.2h-18.5h-54.4h-23
			c-7.8,12.3-21.8,20.2-37.5,20.2s-29.7-7.8-37.5-20.2h-6.7h-24.6v-24.6V-814v-39.2c0-20.7,16.8-37.5,37.5-37.5h266.6
			c20.7,0,37.5,16.8,37.5,37.5v39.2L744.4-761.3L744.4-761.3z"/>
	</g>
	<g>
		<path d="M134.5-851.5h-266.6c-7.3,0-12.9,5.6-12.9,12.9v39.2v52.6h8.4h15.7c0,11.2,9,20.2,20.2,20.2s20.2-9,20.2-20.2h40.3h54.3
			h35.3c0,11.2,9,20.2,20.2,20.2s20.2-9,20.2-20.2h3.4H148v-52.6v-39.2C147.4-845.9,141.8-851.5,134.5-851.5z"/>
		<path d="M1.3-1016.1c-114.8,0-207.2,93-207.2,207.2c0,114.8,93,207.2,207.2,207.2c114.8,0,207.2-93,207.2-207.2
			C208.5-923.2,115.5-1016.1,1.3-1016.1z M172.1-746.8v24.6h-24.7H106C98.1-709.8,84.1-702,68.5-702c-15.7,0-29.7-7.8-37.5-20.2
			H12.5h-54.3h-23c-7.8,12.3-21.8,20.2-37.5,20.2s-29.7-7.8-37.5-20.2h-6.7h-24.6v-24.6v-52.6v-39.2c0-20.7,16.8-37.5,37.5-37.5
			h99.7l-67.8-72.2l16.2-15.7l82.3,87.9h14l-66.1-72.2l16.2-15.7l82.3,87.9h91.3c20.7,0,37.5,16.8,37.5,37.5v39.2v52.6H172.1z"/>
	</g>
	<g>
		<path d="M2349.3-894.6c0,0-2.2-3.4-7.3-3.9c-0.6,0-1.7,0-2.8,0c-3.9,0-10.1,0.6-10.1,0.6l-131,31.9c0,0-5.6,1.7-9,4.5
			c-1.7,1.7-4.5,7.8-4.5,7.8l-11.8,30.8l-27.3,12.9l5.6,25.8c15.1,0.6,23.5,5,30.8,9c6.7,3.9,11.8,9,23.5,9s16.8-5,23.5-9
			c7.8-4.5,16.2-9,33-9s25.2,4.5,33,9c6.7,3.9,11.8,9,23.5,9s16.8-5,23.5-9c7.8-3.9,19.6-9,36.4-9c12.9,0,29.7,6.7,29.7,6.7
			c12.3-12.9,21.8-33.6,25.2-43.1c2.2-5.6,9-23,9-23l-53.2,3.9L2349.3-894.6z"/>
		<path d="M2291.1-1016.1c-114.8,0-207.2,93-207.2,207.2c0,114.8,93,207.2,207.2,207.2c114.8,0,207.2-93,207.2-207.2
			S2405.3-1016.1,2291.1-1016.1z M2433.3-712.6c-16.8,0-26.3-5.6-33.6-10.1c-6.7-3.9-11.8-6.7-23-6.7s-16.2,2.8-23,6.7
			c-7.3,4.5-16.8,10.1-33.6,10.1c-17.4,0-26.3-5.6-33.6-10.1c-7.3-3.9-12.3-6.7-23.5-6.7s-16.2,2.8-23,6.7
			c-7.3,4.5-16.8,10.1-33.6,10.1s-26.3-5.6-33.6-10.1c-6.7-3.9-17.4-6.2-28.6-6.2l-5-22.4c21.8-1.7,31.4,5.6,39.2,9.5
			c7.3,3.4,17.4,8.4,28.6,8.4s16.2-2.8,23-6.7c7.3-4.5,16.8-10.1,33.6-10.1s26.3,5.6,33.6,10.1c6.7,3.9,11.8,6.7,23,6.7
			s16.8-2.8,23-6.7c7.3-4.5,16.8-10.1,33.6-10.1c17.4,0,26.3,5.6,33.6,10.1c6.7,3.9,11.8,6.7,23,6.7v20.8H2433.3z M2454.1-814
			c-2.2,5-12.9,31.9-29.7,49.8l-10.1,10.6l-13.4-5c-3.9-1.7-15.7-5-21.8-5c-9.5,0-18.5,2.2-26.3,6.2c-1.1,0.6-2.2,1.1-2.8,1.7
			c-6.2,3.9-15.7,9.5-30.8,9.5s-24.6-5.6-30.8-9.5c-1.1-0.6-2.2-1.1-2.8-1.7c-6.7-3.9-11.8-6.2-23-6.2s-16.2,2.8-23,6.2
			c-1.1,0.6-2.2,1.1-2.8,1.7c-6.2,3.9-15.7,9.5-30.8,9.5c-15.1,0-24.6-5.6-30.8-9.5c-1.1-0.6-2.2-1.1-2.8-1.7
			c-6.2-3.4-10.6-6.2-21.3-6.2l-16.2-0.6l-3.4-16.2l-5.6-25.8l-3.4-16.2l15.1-7.3l19.6-9.5l9-23v-0.6v-0.6
			c4.5-10.1,7.8-13.4,9.5-14.6c6.2-5.6,14.6-8.4,17.9-9.5l131-31.9l1.7-0.6h1.7c0,0,6.7-0.6,11.8-0.6c2.2,0,3.9,0,5.6,0.6
			c12.3,1.7,19,9,21.3,12.3l34.2,44.8l42-2.8l33-2.2l-12.3,30.8L2454.1-814z"/>
	</g>
	<g>
		<path d="M2322.5-1446.2h-164.6c-7.3,0-12.9,6.2-12.9,12.9v96.9h8.4h15.7c0,11.2,9,20.2,20.2,20.2c11.2,0,20.2-9,20.2-20.2h23.5
			h54.3h35.3c0,11.2,9,20.2,20.2,20.2s20.2-9,20.2-20.2h3.4h70.6v-23.5l-90.2-78.4C2347.1-1438.4,2340.4-1446.2,2322.5-1446.2z"/>
		<path d="M2291.1-1588.4c-114.8,0-207.2,93-207.2,207.2c0,114.8,93,207.2,207.2,207.2s207.2-93,207.2-207.2
			S2405.3-1588.4,2291.1-1588.4z M2461.3-1335.9v24.1h-24.6h-56.6c-7.8,12.3-21.8,20.2-37.5,20.2s-29.7-7.8-37.5-20.2h-18.5h-54.3
			h-6.2c-7.8,12.3-21.8,20.2-37.5,20.2s-29.7-7.8-37.5-20.2h-6.7h-24.6v-24.6v-96.9c0-20.7,16.8-37.5,37.5-37.5h164.6
			c23.5,0,35.8,9.5,40.9,14.6l89,77.8l8.4,7.3v11.2L2461.3-1335.9L2461.3-1335.9z"/>
	</g>
	<g>
		<path d="M672.1,255.1l-19.6-51c-3.9-9.5-11.8-17.9-26.9-17.9h-28H550h-28.5c-15.1,0-23.5,8.4-26.9,17.9l-19.6,51
			c-7.8,1.1-21.8,10.1-21.8,27.4v65h19v20.7c0,12.9,9,19,17.9,19s17.9-6.2,17.9-19v-20.7h65h65v20.7c0,12.9,9,19,18.5,19
			c9,0,17.9-6.2,17.9-19v-20.7h19v-65C694,265.2,680,256.2,672.1,255.1z M491.3,325.6c-9,0-16.8-7.8-16.8-17.4
			c0-9.5,7.3-17.4,16.8-17.4c9,0,16.8,7.8,16.8,17.4C507.5,317.8,500.2,325.6,491.3,325.6z M573.6,254.5L573.6,254.5h-78.4
			l15.1-46.5c1.7-6.7,4.5-11.2,11.2-11.2h52.1l0,0h52.1c6.7,0,9.5,5,11.2,11.2l15.1,46.5H573.6z M655.9,325.6
			c-9.5,0-16.8-7.8-16.8-17.4c0-9.5,7.3-17.4,16.8-17.4c9,0,16.8,7.8,16.8,17.4C672.7,317.8,665.4,325.6,655.9,325.6z"/>
		<polygon points="573.6,217.6 529.3,217.6 524.3,233.8 573.6,233.8 622.9,233.8 617.8,217.6 		"/>
		<path d="M573.6,79.2c-114.8,0-207.2,93-207.2,207.2c0,114.8,93,207.2,207.2,207.2s207.2-93,207.2-207.2S688.4,79.2,573.6,79.2z
			 M714.7,347.5v21.3h-19c0,23-16.8,39.8-39.2,39.8s-39.2-16.8-39.2-39.8h-43.7h-44.2c0,23-16.8,39.8-39.2,39.8
			c-10.6,0-20.2-3.9-27.4-11.2s-11.3-17.4-11.3-28.6h-19v-21.3v-65c0-22.4,12.9-37,26.3-44.2l16.2-42c7.8-20.2,24.6-31.4,46.5-31.4
			h28.6h47.6h28l0,0l0,0c21.8,0,39.2,11.8,46.5,31.4l16.2,42c14.6,7.3,26.9,23.5,26.9,44.2L714.7,347.5L714.7,347.5z"/>
	</g>
	<g>
		<path d="M368.1-267.4c-1.1,6.7-1.7,14-1.7,20.7h314.7c-1.1-2.2-2.8-3.9-3.9-6.2c-53.8-69.4-82.9-63.3-124.3-65.5
			c-14-0.6-23-0.6-77.8-0.6c-29.7,0-61.6,0-92.4,0c2.8-7.3,6.7-14,10.6-20.7c-11.8,21.3-20.2,44.8-24.1,69.4l3.9-18.5c0,0,0,0,0-0.6
			h161.3v21.3H368.1V-267.4z"/>
		<path d="M683.3-225.4h-317c0.6,5.6,1.1,11.2,1.7,16.8c121.5,0,277.2,0,292.9,0C673.8-208.6,681.1-215.9,683.3-225.4z"/>
		<path d="M475-339.6v21.3V-339.6c63.8,0,66.6,0.6,79,0.6l7.8,0.6c26.9,1.1,59.9,3.9,86.2,23.5c14,10.6,34.7,34.2,47,51
			c11.2,15.7,14.6,33.6,6.7,50.4c-7.3,15.7-22.4,25.2-40.9,25.2H372.5l-3.9-17.4c1.7,11.2,4.5,22.4,7.8,32.5h393.7
			c6.7-20.7,10.6-42.6,10.6-65c0-114.8-93-207.2-207.2-207.2c-77.3,0-145,42.6-180.3,105.3C420.7-339.1,448.7-339.6,475-339.6z"/>
		<path d="M384.9-151.5c-2.8-6.7-5.6-13.4-8.4-20.7C403.9-89.9,481.7-30,573-30c84,0,155.7-49.8,188.7-121.5H384.9z"/>
	</g>
	<path d="M2846.1-122.4c0,2.2-0.6,4.5-0.6,6.7s0,4.5,0.6,6.7V-122.4z"/>
	<path d="M3241.4-30c2.8-6.7,5.6-13.4,8.4-20.7C3247.6-43.4,3244.8-36.7,3241.4-30z"/>
	<g>
		<path d="M944.3-187.3c-0.6-3.4-1.7-6.7-2.2-10.1C943.2-194,943.7-190.7,944.3-187.3z"/>
		<path d="M1021.6-178.9h-75c6.7,23.5,17.4,45.4,31.4,65L1021.6-178.9z"/>
		<g>
			<path d="M1145.9-443.2c-114.8,0-207.2,93-207.2,207.2c0,12.3,1.1,24.1,3.4,35.8h119.3l-68.9,103c7.8,9,16.8,16.8,25.8,24.1
				l102.5-118.7c2.2-2.8,3.9-5.6,6.2-8.4h73.9c28,0,101.4-10.1,101.4-38.1s-73.4-38.1-101.4-38.1H1127c-1.7-2.8-3.9-5.6-6.2-8.4
				l-99.7-115.4c5.6-4.5,11.2-8.4,17.4-11.8l98.6,113.7l0.6,0.6h63.3c1.1,0,122.1,1.7,122.1,59.4s-121,59.4-122.1,59.4h-63.5
				c0,0.6-0.6,0.6-0.6,1.1l-101.4,117c31.9,20.2,70,31.9,110.3,31.9c114.8,0,207.2-93,207.2-207.2
				C1353.7-350.3,1260.7-443.2,1145.9-443.2z M1061.3-276.4H942.6c1.7-7.3,3.4-14,5.6-21.3h73.4l-41.4-61.6c4.5-5.6,9-11.2,14-16.8
				L1061.3-276.4z"/>
		</g>
	</g>
	<g>
		<path d="M-0.4-444.9c-65,0-122.6,29.7-160.7,76.7H54.5c0.6,0,1.1,0,1.7,0c5.6,0,16.8,0.6,29.1,6.2c15.7,7.3,26.3,21.3,28,24.1
			l0.6,0.6l0.6,0.6l23,38.1h12.7h28l-7.8,26.9L142.9-180l-6.2,20.2l-20.2-5.6c-11.8-3.4-25.2-6.2-28.6-6.2c-11.2,0-16.8,2.8-23,6.7
			c-7.3,4.5-16.8,10.1-34.2,10.1s-26.3-5.6-33.6-10.1c-6.7-3.9-11.8-6.7-23-6.7s-16.8,2.8-23,6.7c-7.3,4.5-16.8,10.1-33.6,10.1
			c-17.4,0-26.3-5.6-33.6-10.1c-6.2-3.9-11.8-6.7-23-6.7s-16.8,2.8-23,6.7c-6.2,3.4-14,7.8-25.8,9c-2.8-6.7-5.6-13.4-7.8-20.2
			c11.2,0,16.2-3.4,23-6.7c7.3-4.5,16.8-10.1,33.6-10.1c17.4,0,26.3,5.6,33.6,10.1c6.7,3.9,11.8,6.7,23,6.7s16.8-2.8,23-6.7
			c7.3-4.5,16.8-10.1,33.6-10.1s26.3,5.6,33.6,10.1c6.7,3.9,11.8,6.7,23,6.7s16.8-2.8,23.5-6.7c7.3-4.5,16.8-10.1,34.2-10.1
			c9.5,0,34.7,7.3,34.7,7.3l27.4-91.8h-24.6l-29.1-48.2c0,0-7.8-11.8-19.6-16.8c-9-3.9-17.4-4.5-20.7-4.5c-0.6,0-1.1,0-1.1,0h-230.7
			c-20.2,31.9-31.9,69.4-31.9,109.8c0,114.8,93,207.2,207.2,207.2c114.8,0,207.2-93,207.2-207.2C207.3-352,114.4-444.9-0.4-444.9z
			 M85.8-264.6c5,0,9,3.9,9,9c0,5-3.9,9-9,9c-5.1,0-9-3.9-9-9C76.3-260.1,80.8-264.6,85.8-264.6z M46.6-264.6c5,0,9,3.9,9,9
			c0,5-3.9,9-9,9c-5,0-9-3.9-9-9C37.7-260.1,41.6-264.6,46.6-264.6z M8.5-264.6c5,0,9,3.9,9,9c0,5-3.9,9-9,9s-9-3.9-9-9
			C-0.4-260.1,3.5-264.6,8.5-264.6z M-29.5-264.6c5,0,9,3.9,9,9c0,5-3.9,9-9,9c-5,0-9-3.9-9-9C-38.5-260.1-34.6-264.6-29.5-264.6z
			 M144.6-118.4c-17.4,0-26.3-5.6-34.2-10.1c-6.7-3.9-11.8-6.7-23-6.7s-16.8,2.8-23.5,6.7c-7.3,4.5-16.8,10.1-34.2,10.1
			S3.4-124-3.9-128.5c-6.7-3.9-11.8-6.7-23-6.7s-16.8,2.8-23,6.7c-7.3,4.5-16.8,10.1-33.6,10.1c-17.4,0-26.3-5.6-33.6-10.1
			c-6.7-3.9-11.8-6.7-23-6.7s-16.8,2.8-23,6.7c-2.2,1.7-5,2.8-8.4,4.5c-3.9-5.6-7.8-11.8-11.2-17.9c2.8-1.1,5.6-2.8,8.4-4.5
			c7.3-4.5,16.8-10.1,33.6-10.1c16.8,0,26.3,5.6,33.6,10.1c6.7,3.9,11.8,6.7,23,6.7s16.8-2.8,23-6.7c7.3-4.5,16.8-10.1,33.6-10.1
			c17.4,0,26.3,5.6,33.6,10.1c6.7,3.9,11.8,6.7,23,6.7s16.8-2.8,23.5-6.7c7.3-4.5,16.8-10.1,34.2-10.1s26.3,5.6,34.2,10.1
			c6.7,3.9,11.8,6.7,23.5,6.7L144.6-118.4L144.6-118.4z"/>
	</g>
	<g>
		<path d="M-133.7-1325.8v26.3c0,4.5,3.9,8.4,8.4,8.4h33c4.5,0,8.4-3.9,8.4-8.4v-26.3c0-4.5-3.9-8.4-8.4-8.4h-33
			C-130.3-1334.2-133.7-1330.3-133.7-1325.8z"/>
		<path d="M52.2-1454v-43.1c0-4.5-3.9-8.4-8.4-8.4h-87.9c-4.5,0-8.4,3.9-8.4,8.4v43.1c0,4.5,3.9,8.4,8.4,8.4h87.9
			C48.3-1445.6,52.2-1449.6,52.2-1454z"/>
		<path d="M16.4-1334.2h-33c-4.5,0-8.4,3.9-8.4,8.4v26.3c0,4.5,3.9,8.4,8.4,8.4h33c4.5,0,8.4-3.9,8.4-8.4v-26.3
			C24.8-1330.3,20.9-1334.2,16.4-1334.2z"/>
		<path d="M125.6-1334.2h-33c-4.5,0-8.4,3.9-8.4,8.4v26.3c0,4.5,3.9,8.4,8.4,8.4h33c4.5,0,8.4-3.9,8.4-8.4v-26.3
			C134-1330.3,130.1-1334.2,125.6-1334.2z"/>
		<path d="M1.3-1588.4c-114.8,0-207.2,93-207.2,207.2c0,114.8,93,207.2,207.2,207.2c114.8,0,207.2-93,207.2-207.2
			C208.5-1495.5,115.5-1588.4,1.3-1588.4z M46.1-1299.5c0,16.2-13.4,29.7-29.7,29.7h-33c-16.2,0-29.7-13.4-29.7-29.7v-26.3
			c0-16.2,13.4-29.7,29.7-29.7h33c16.2,0,29.7,13.4,29.7,29.7C46.1-1325.8,46.1-1299.5,46.1-1299.5z M125.6-1269.8h-33
			c-16.2,0-29.7-13.4-29.7-29.7v-26.3c0-16.2,13.4-29.7,29.7-29.7h9v-30.2c0-0.6-0.6-1.1-1.1-1.1H7v30.8H-7.6v-30.8h-93
			c-0.6,0-1.1,0.6-1.1,1.1v30.2h9c16.2,0,29.7,13.4,29.7,29.7v26.3c0,16.2-13.4,29.7-29.7,29.7h-33c-16.2,0-29.7-13.4-29.7-29.7
			v-26.3c0-16.2,13.4-29.7,29.7-29.7h9v-30.2c0-9,7.3-15.7,15.7-15.7h93v-23.5h-36.4c-16.2,0-29.7-13.4-29.7-29.7v-43.1
			c0-16.2,13.4-29.7,29.7-29.7h87.9c16.2,0,29.7,13.4,29.7,29.7v43.1c0,16.2-13.4,29.7-29.7,29.7H7.1v23.5h93.5
			c9,0,15.7,7.3,15.7,15.7v30.2h9c16.2,0,29.7,13.4,29.7,29.7v26.3C154.7-1283.2,141.8-1269.8,125.6-1269.8z"/>
	</g>
	<g>
		<path d="M630.1-1296.7H620c-4.5,0-8.4-3.9-8.4-8.4v-87.9c0-4.5-3.9-8.4-8.4-8.4h-8.4c-4.5,0-12.3,0-16.8,0h-24.1
			c-4.5,0-12.3,0-16.8,0h-8.4c-4.5,0-8.4,3.9-8.4,8.4v5.6c0,4.5,3.9,8.4,8.4,8.4h8.4c4.5,0,8.4,3.9,8.4,8.4v65.5
			c0,4.5-3.9,8.4-8.4,8.4H527c-4.5,0-8.4,3.9-8.4,8.4v5.6c0,4.5,3.9,8.4,8.4,8.4h10.1c4.5,0,12.3,0,16.8,0h49.3c4.5,0,12.3,0,16.8,0
			h10.1c4.5,0,8.4-3.9,8.4-8.4v-5.6C638.5-1292.8,634.6-1296.7,630.1-1296.7z"/>
		<path d="M573.6-1458.5c14,0,25.2-11.2,25.2-25.2s-11.2-25.2-25.2-25.2s-25.2,11.2-25.2,25.2S559.6-1458.5,573.6-1458.5z"/>
		<path d="M573.6-1588.4c-114.8,0-207.2,93-207.2,207.2c0,114.8,93,207.2,207.2,207.2c114.8,0,207.2-93,207.2-207.2
			S688.4-1588.4,573.6-1588.4z M573.6-1530.2c25.8,0,46.5,20.7,46.5,46.5s-20.7,46.5-46.5,46.5c-25.8,0-46.5-20.7-46.5-46.5
			S547.8-1530.2,573.6-1530.2z M659.3-1282.7c0,16.2-13.4,29.7-29.7,29.7h-10.1h-16.8h-49.3h-16.8h-10.1
			c-16.2,0-29.7-13.4-29.7-29.7v-5.6c0-15.1,11.8-28,26.9-29.1v-40.3c-14.6-2.2-25.2-14.6-25.2-29.1v-5.6
			c0-16.2,13.4-29.7,29.7-29.7h8.4h16.8h24.1h16.8h8.4c16.2,0,29.7,13.4,29.7,29.7v75c15.1,1.1,26.9,14,26.9,29.1
			C659.3-1288.3,659.3-1282.7,659.3-1282.7z"/>
	</g>
	<g>
		<path d="M2342.1-1858.4H2332c-4.5,0-8.4-3.9-8.4-8.4v-87.9c0-4.5-3.9-8.4-8.4-8.4h-8.4c-4.5,0-12.3,0-16.8,0h-24.1
			c-4.5,0-12.3,0-16.8,0h-8.4c-4.5,0-8.4,3.9-8.4,8.4v5.6c0,4.5,3.9,8.4,8.4,8.4h8.4c4.5,0,8.4,3.9,8.4,8.4v65.5
			c0,4.5-3.9,8.4-8.4,8.4H2239c-4.5,0-8.4,3.9-8.4,8.4v5.6c0,4.5,3.9,8.4,8.4,8.4h10.1c4.5,0,12.3,0,16.8,0h49.3
			c4.5,0,12.3,0,16.8,0h10.1c4.5,0,8.4-3.9,8.4-8.4v-5.6C2350.5-1854.4,2347.1-1858.4,2342.1-1858.4z"/>
		<path d="M2286.1-2020.2c14,0,25.2-11.2,25.2-25.2s-11.2-25.2-25.2-25.2s-25.2,11.2-25.2,25.2S2272.1-2020.2,2286.1-2020.2z"/>
		<path d="M2291.1-2160.8c-114.8,0-207.2,93-207.2,207.2s93,207.2,207.2,207.2s207.2-93,207.2-207.2S2405.3-2160.8,2291.1-2160.8z
			 M2286.1-2091.9c25.8,0,46.5,20.7,46.5,46.5s-20.7,46.5-46.5,46.5s-46.5-20.7-46.5-46.5S2260.3-2091.9,2286.1-2091.9z
			 M2371.7-1844.4c0,16.2-13.4,29.7-29.7,29.7h-10.1h-16.8h-49.3H2249h-10.1c-16.2,0-29.7-13.4-29.7-29.7v-5.6
			c0-15.1,11.8-28,26.9-29.1v-40.3c-14.6-2.2-25.2-14.6-25.2-29.1v-5.6c0-16.2,13.4-29.7,29.7-29.7h8.4h16.8h24.1h16.8h8.4
			c16.2,0,29.7,13.4,29.7,29.7v75.6c15.1,1.1,26.9,14,26.9,29.1L2371.7-1844.4L2371.7-1844.4z"/>
	</g>
	<g>
		<rect x="1728.9" y="-1458" width="74.5" height="59.4"/>
		<polygon points="1708.1,-1479.2 1728.9,-1479.2 1782.1,-1479.2 1718.8,-1507.2 1654.9,-1479.2 		"/>
		<rect x="1633.7" y="-1458" width="74.5" height="59.4"/>
		<path d="M1718.2-1301.7c26.3,0,47.6-20.7,47.6-45.9v-29.7h-95.2v29.7C1670.6-1321.9,1691.9-1301.7,1718.2-1301.7z"/>
		<path d="M1718.2-1588.4c-114.8,0-207.2,93-207.2,207.2c0,114.8,93,207.2,207.2,207.2s207.2-93,207.2-207.2
			C1926-1495.5,1833-1588.4,1718.2-1588.4z M1834.7-1465.2v123.8c0,59.4-52.1,108.1-116.5,108.1s-115.9-48.2-115.9-108.1v-123.8v-14
			l12.3-5.6l95.8-42l8.4-3.9l8.4,3.9l95.2,42l12.3,5.6L1834.7-1465.2L1834.7-1465.2z"/>
		<path d="M1776.5-1377.9v1.1v29.7c0,30.8-26.3,56.6-58.2,56.6c-31.9,0-58.2-25.2-58.2-56.6v-29.7v-1.1h-37v37
			c0,48.2,42.6,86.8,95.2,86.8s95.2-38.6,95.2-86.8v-37H1776.5z"/>
	</g>
	<g>
		<path d="M1150.4-1433.9c-29.1,0-53.2,23.5-53.2,53.2s23.5,53.2,53.2,53.2s53.2-23.5,53.2-53.2S1179.5-1433.9,1150.4-1433.9z"/>
		<path d="M1249.5-1402h-2.2c-4.5,0-9.5-3.4-11.2-7.8l-4.5-10.6c-2.2-3.9-1.1-10.1,2.2-13.4l1.7-1.7c3.4-3.4,3.4-8.4,0-11.8
			l-17.9-17.9c-1.7-1.7-3.9-2.2-6.2-2.2s-4.5,0.6-6.2,2.2l-1.7,1.7c-2.2,2.2-5,3.4-8.4,3.4c-1.7,0-3.4-0.6-5-1.1l-10.6-4.5
			c-4.5-1.7-7.8-6.2-7.8-11.2v-2.8c0-4.5-3.9-8.4-8.4-8.4h-25.8c-4.5,0-8.4,3.9-8.4,8.4v2.2c0,4.5-3.4,9.5-7.8,11.2l-10.6,4.5
			c-1.7,0.6-3.4,1.1-5,1.1c-3.4,0-6.2-1.1-8.4-3.4l-1.7-1.7c-1.7-1.7-3.9-2.2-6.2-2.2c-2.2,0-4.5,0.6-6.2,2.2l-17.9,17.9
			c-3.4,3.4-3.4,8.4,0,11.8l1.7,1.7c3.4,3.4,4.5,9.5,2.2,13.4l-4.5,10.6c-1.7,4.5-6.2,7.8-11.2,7.8h-2.2c-4.5,0-8.4,3.9-8.4,8.4
			v25.8c0,4.5,3.9,8.4,8.4,8.4h2.2c4.5,0,9.5,3.4,11.2,7.8l4.5,10.6c2.2,3.9,1.1,10.1-2.2,13.4l-1.7,1.7c-3.4,3.4-3.4,8.4,0,11.8
			l17.9,17.9c1.7,1.7,3.9,2.2,6.2,2.2c2.2,0,4.5-0.6,6.2-2.2l1.7-1.7c2.2-2.2,5.6-3.4,8.4-3.4c1.7,0,3.4,0.6,5,1.1l10.1,5.6
			c4.5,1.7,7.8,6.2,7.8,11.2v2.2c0,4.5,3.9,8.4,8.4,8.4h25.8c4.5,0,8.4-3.9,8.4-8.4v-2.2c0-4.5,3.4-9.5,7.8-11.2l10.6-4.5
			c1.7-0.6,3.4-1.1,5-1.1c3.4,0,6.2,1.1,8.4,3.4l1.7,1.7c1.7,1.7,3.9,2.2,6.2,2.2c2.2,0,4.5-0.6,6.2-2.2l17.9-17.9
			c3.4-3.4,3.4-8.4,0-11.8l-1.7-1.7c-3.4-3.4-3.9-9.5-2.2-13.4l4.5-10.6c1.7-4.5,6.2-7.8,11.2-7.8h2.2c4.5,0,8.4-3.9,8.4-8.4v-25.8
			C1257.9-1398.6,1254-1402,1249.5-1402z M1150.4-1317.4c-35.3,0-63.3-28.6-63.3-63.3c0-35.3,28.6-63.3,63.3-63.3
			c35.3,0,63.3,28.6,63.3,63.3C1213.7-1346,1185.1-1317.4,1150.4-1317.4z"/>
		<path d="M1150.4-1588.4c-114.8,0-207.2,93-207.2,207.2c0,114.8,93,207.2,207.2,207.2c114.8,0,207.2-93,207.2-207.2
			C1357.6-1495.5,1264.6-1588.4,1150.4-1588.4z M1278.6-1367.8c0,14.6-11.2,26.9-25.2,29.1l-0.6,1.7c3.9,5,5.6,11.2,5.6,17.9
			c0,7.8-2.8,15.1-8.4,20.7l-17.9,17.9c-5.6,5.6-12.9,8.4-20.7,8.4c-6.2,0-12.3-2.2-17.4-5.6l-1.7,0.6c-2.2,14-14.6,25.2-29.1,25.2
			h-25.7c-14.6,0-26.9-11.2-29.1-25.2l-1.7-0.6c-5,3.9-11.2,5.6-17.4,5.6c-7.8,0-15.1-2.8-20.7-8.4l-17.9-17.9
			c-5.6-5.6-8.4-12.9-8.4-20.7c0-6.7,2.2-12.3,5.6-17.4l-0.6-1.7c-14-2.2-25.2-14.6-25.2-29.1v-25.8c0-14.6,11.2-26.9,25.2-29.1
			l0.6-1.7c-3.9-5-5.6-11.2-5.6-17.4c0-7.8,2.8-15.1,8.4-20.7l17.9-17.9c5.6-5.6,12.9-8.4,20.7-8.4c6.2,0,12.3,2.2,17.4,5.6l1.7-0.6
			c2.2-14,14.6-25.2,29.1-25.2h25.8c14.6,0,26.9,11.2,29.1,25.2l1.7,0.6c5-3.9,11.2-5.6,17.4-5.6c7.8,0,15.1,2.8,20.7,8.4l17.9,17.9
			c5.6,5.6,8.4,12.9,8.4,20.7c0,6.7-2.2,12.3-5.6,17.4l0.6,1.7c14,2.2,25.2,14.6,25.2,29.1L1278.6-1367.8L1278.6-1367.8z"/>
	</g>
	<g>
		<path d="M-115.2-1953.6c21.3,20.7,66.1,58.2,116.5,58.2s95.2-37.5,116.5-58.2c-21.3-20.7-66.1-58.2-116.5-58.2
			C-49.7-2011.2-94.5-1974.3-115.2-1953.6z M52.8-1953.6c0,28.6-23,51.5-51.5,51.5s-51.5-23-51.5-51.5c0-28.6,23-51.5,51.5-51.5
			S52.8-1982.1,52.8-1953.6z"/>
		<path d="M-29.5-1953.6c0,16.8,14,30.8,30.8,30.8s30.8-14,30.8-30.8s-14-30.8-30.8-30.8C-15.5-1983.8-29.5-1970.4-29.5-1953.6z"/>
		<path d="M1.3-2160.8c-114.8,0-207.2,93-207.2,207.2s93,207.2,207.2,207.2c114.8,0,207.2-93,207.2-207.2S115.5-2160.8,1.3-2160.8z
			 M1.3-1874c-80.1,0-145.6-79-145.6-79s65-79,145.6-79c80.1,0,145.6,79,145.6,79S81.3-1874,1.3-1874z"/>
	</g>
	<g>
		<circle cx="573.6" cy="-1977.1" r="29.7"/>
		<path d="M573.6-2063.9c-47.6,0-86.2,38.6-86.2,86.2s86.2,134.4,86.2,134.4s86.2-86.8,86.2-134.4
			C659.8-2025.2,621.2-2063.9,573.6-2063.9z M573.6-1926.1c-28,0-51-23-51-51s23-51,51-51s51,23,51,51
			C624.5-1949.1,601.6-1926.1,573.6-1926.1z"/>
		<path d="M573.6-2160.8c-114.8,0-207.2,93-207.2,207.2s93,207.2,207.2,207.2s207.2-93,207.2-207.2S688.4-2160.8,573.6-2160.8z
			 M588.7-1828.1l-15.1,15.1l-15.1-15.1c-15.7-15.7-92.4-95.8-92.4-149c0-59.4,48.2-107.5,107.5-107.5
			c59.3,0,107.5,48.2,107.5,107.5C681.1-1923.3,603.8-1843.8,588.7-1828.1z"/>
	</g>
	<g>
		<polygon points="1238.9,-1979.9 1145.9,-2073.4 1119,-2046.5 1193.5,-1972 1036.1,-1972 1036.1,-1934.5 1193.5,-1934.5 
			1119,-1860 1145.9,-1833.2 1265.7,-1953.6 		"/>
		<path d="M1145.9-2160.8c-114.8,0-207.2,93-207.2,207.2s93,207.2,207.2,207.2c114.8,0,207.2-93,207.2-207.2
			S1260.7-2160.8,1145.9-2160.8z M1280.9-1938.4l-119.8,119.8l-15.1,15.1l-15.1-15.1l-26.9-26.9l-15.1-15.1l15.1-15.1l38.1-38.1
			h-106.5h-21.3v-21.3v-38.1v-21.3h21.3H1142l-38.1-38.1l-15.1-15.1l15.1-15.1l26.9-26.9l15.1-15.1l15.1,15.1l78.4,78.4l0,0
			l15.1,15.1l26.9,26.9l15.1,15.1L1280.9-1938.4z"/>
	</g>
	<g>
		<path d="M1742.9-2056.6h-49.3c-4.5,0-8.4,3.9-8.4,8.4v93.5c0,4.5,3.9,8.4,8.4,8.4h49.3c4.5,0,8.4-3.9,8.4-8.4v-93.5
			C1751.3-2052.7,1747.3-2056.6,1742.9-2056.6z"/>
		<path d="M1718.2-1886.4c-14,0-25.2,11.2-25.2,25.2s11.2,25.2,25.2,25.2s25.2-11.2,25.2-25.2
			C1744-1875.2,1732.2-1886.4,1718.2-1886.4z"/>
		<path d="M1718.2-2160.8c-114.8,0-207.2,93-207.2,207.2s93,207.2,207.2,207.2c114.8,0,207.2-93,207.2-207.2
			C1925.4-2067.8,1833-2160.8,1718.2-2160.8z M1718.2-1814.7c-25.8,0-46.5-20.7-46.5-46.5s20.7-46.5,46.5-46.5s46.5,20.7,46.5,46.5
			S1744-1814.7,1718.2-1814.7z M1772.5-1954.7c0,16.2-13.4,29.7-29.7,29.7h-49.3c-16.2,0-29.7-13.4-29.7-29.7v-93.5
			c0-16.2,13.4-29.7,29.7-29.7h49.3c16.2,0,29.7,13.4,29.7,29.7V-1954.7z"/>
	</g>
</g>
</svg>
