<?xml version="1.0" encoding="utf-8"?>
<!-- Generator: Adobe Illustrator 18.1.1, SVG Export Plug-In . SVG Version: 6.00 Build 0)  -->
<svg version="1.1" id="Layer_1" xmlns="http://www.w3.org/2000/svg" xmlns:xlink="http://www.w3.org/1999/xlink" x="0px" y="0px"
	 viewBox="-454 256 50 50" enable-background="new -454 256 50 50" xml:space="preserve">
<g>
	<path d="M-429,273.3c-4.3,0-7.7,3.5-7.7,7.7c0,4.3,3.5,7.7,7.7,7.7c4.3,0,7.7-3.5,7.7-7.7C-421.3,276.7-424.7,273.3-429,273.3z
		 M-429,284.4c-1.9,0-3.4-1.5-3.4-3.4c0-1.9,1.5-3.4,3.4-3.4c1.9,0,3.4,1.5,3.4,3.4C-425.6,282.9-427.1,284.4-429,284.4z"/>
	<path d="M-429,263c-9.9,0-18,8.1-18,18s8.1,18,18,18c9.9,0,18-8.1,18-18C-411,271.1-419.1,263-429,263z M-429,289.7
		c-4.8,0-8.7-3.9-8.7-8.7c0-4.8,3.9-8.7,8.7-8.7c4.8,0,8.7,3.9,8.7,8.7C-420.3,285.8-424.2,289.7-429,289.7z"/>
</g>
</svg>
