<?xml version="1.0" encoding="utf-8"?>
<!-- Generator: Adobe Illustrator 18.1.1, SVG Export Plug-In . SVG Version: 6.00 Build 0)  -->
<svg version="1.1" id="Your_Icon" xmlns="http://www.w3.org/2000/svg" xmlns:xlink="http://www.w3.org/1999/xlink" x="0px" y="0px"
	 viewBox="-429 231 100 100" enable-background="new -429 231 100 100" xml:space="preserve">
<path d="M-379,251c-16.6,0-30,13.4-30,30s13.4,30,30,30c16.6,0,30-13.4,30-30S-362.4,251-379,251z M-369,294.4
	c-3.6,2.4-7.5,2.4-10.3,1.4c-2.8-0.9-4.7,0.1-8.1,3.4l-2.9,3c-4-2.2-7.4-5.5-9.6-9.5l3.6-3.3c2.9-3.1,3.6-4.4,2.9-8
	c-0.9-4-0.9-8.9,4-13.3c0.7-0.6,2.6-1.8,2.6-2c7.6-4.5,15.8-0.4,15.8-0.4l0.6,1c0,0-7,4.6-7.9,5.1c-1,0.6-4,4-0.4,9.4
	c3.5,5.4,7.4,3.6,8.5,2.8c0.9-0.5,7.9-5,7.9-5l0.6,1C-361.7,280-361.2,289.4-369,294.4z"/>
</svg>
