<?xml version="1.0" encoding="utf-8"?>
<!-- Generator: Adobe Illustrator 18.1.1, SVG Export Plug-In . SVG Version: 6.00 Build 0)  -->
<svg version="1.1" id="Layer_1" xmlns="http://www.w3.org/2000/svg" xmlns:xlink="http://www.w3.org/1999/xlink" x="0px" y="0px"
	 viewBox="280 0 594 560" enable-background="new 280 0 594 560" xml:space="preserve">
<g id="Your_Icon">
	<g>
		<path d="M672.1,255.1l-19.6-51c-3.9-9.5-11.8-17.9-26.9-17.9h-28H550h-28.5c-15.1,0-23.5,8.4-26.9,17.9l-19.6,51
			c-7.8,1.1-21.8,10.1-21.8,27.4v65h19v20.7c0,12.9,9,19,17.9,19s17.9-6.2,17.9-19v-20.7h65h65v20.7c0,12.9,9,19,18.5,19
			c9,0,17.9-6.2,17.9-19v-20.7h19v-65C694,265.2,680,256.2,672.1,255.1z M491.3,325.6c-9,0-16.8-7.8-16.8-17.4
			c0-9.5,7.3-17.4,16.8-17.4c9,0,16.8,7.8,16.8,17.4C507.5,317.8,500.2,325.6,491.3,325.6z M573.6,254.5L573.6,254.5h-78.4
			l15.1-46.5c1.7-6.7,4.5-11.2,11.2-11.2h52.1l0,0h52.1c6.7,0,9.5,5,11.2,11.2l15.1,46.5H573.6z M655.9,325.6
			c-9.5,0-16.8-7.8-16.8-17.4c0-9.5,7.3-17.4,16.8-17.4c9,0,16.8,7.8,16.8,17.4C672.7,317.8,665.4,325.6,655.9,325.6z"/>
		<polygon points="573.6,217.6 529.3,217.6 524.3,233.8 573.6,233.8 622.9,233.8 617.8,217.6 		"/>
		<path d="M573.6,79.2c-114.8,0-207.2,93-207.2,207.2c0,114.8,93,207.2,207.2,207.2s207.2-93,207.2-207.2S688.4,79.2,573.6,79.2z
			 M714.7,347.5v21.3h-19c0,23-16.8,39.8-39.2,39.8s-39.2-16.8-39.2-39.8h-43.7h-44.2c0,23-16.8,39.8-39.2,39.8
			c-10.6,0-20.2-3.9-27.4-11.2s-11.3-17.4-11.3-28.6h-19v-21.3v-65c0-22.4,12.9-37,26.3-44.2l16.2-42c7.8-20.2,24.6-31.4,46.5-31.4
			h28.6h47.6h28l0,0l0,0c21.8,0,39.2,11.8,46.5,31.4l16.2,42c14.6,7.3,26.9,23.5,26.9,44.2L714.7,347.5L714.7,347.5z"/>
	</g>
</g>
</svg>
