<?xml version="1.0" encoding="utf-8"?>
<!-- Generator: Adobe Illustrator 18.1.1, SVG Export Plug-In . SVG Version: 6.00 Build 0)  -->
<svg version="1.1" id="Your_Icon" xmlns="http://www.w3.org/2000/svg" xmlns:xlink="http://www.w3.org/1999/xlink" x="0px" y="0px"
	 viewBox="-429 231 100 100" enable-background="new -429 231 100 100" xml:space="preserve">
<g>
	<path d="M-379,246.3c-19.2,0-34.7,15.5-34.7,34.7c0,19.1,15.5,34.7,34.7,34.7c19.1,0,34.7-15.5,34.7-34.7
		C-344.3,261.9-359.9,246.3-379,246.3z M-362.2,257.6c1.6,1.3,3.6,3.2,4.6,5c1.9,3.3,2.4,6.6,4.8,8.5c0.6,0.5,1.1,1,1.4,1.6
		c0.3,0.9,0.5,1.9,0.7,2.8c-0.3,0.9-1.1,1.8-2.8,1.7c-3.1-0.2-7.7-1.5-10.6-1.8l-0.1-1c-3.6-4-8.9-6.5-14.8-6.5
		c-5.9,0-11.2,2.5-14.8,6.5l-0.1,1c-2.9,0.3-7.6,1.6-10.6,1.8c-1.7,0.1-2.5-0.8-2.8-1.7c0.2-1,0.4-1.9,0.7-2.8
		c0.4-0.6,0.8-1.1,1.4-1.6c2.4-1.9,3-5.2,4.8-8.5c1-1.8,3-3.7,4.6-5c4.9-3.5,10.7-5.4,16.8-5.4C-372.9,252.1-367,254-362.2,257.6z
		 M-379,295.1c-6.5,0-11.8-5.1-11.8-11.4c0-6.3,5.3-11.4,11.8-11.4c6.5,0,11.8,5.1,11.8,11.4C-367.2,290-372.5,295.1-379,295.1z
		 M-405.6,292.3c-0.2-1.1-0.2-3.3,1.9-3.7c2.9-0.6,7.5-0.8,8.3,0.8c0.1,0.2,0.3,0.4,0.5,0.7c0.9,2.3,3.3,7.2,8.3,7.8
		c0.1,0,0.2,0,0.4,0c0.1,0.3,0.2,0.7,0.2,1.2c0,1.8,0.5,7.3,0.5,7.3s-0.4,2-4.5,1.3c-3.4-1.4-6.6-3.5-9.3-6.2
		C-402.1,298.8-404.2,295.7-405.6,292.3z M-358.6,301.4c-2.7,2.7-5.8,4.8-9.3,6.2c-4.1,0.7-4.5-1.3-4.5-1.3s0.5-5.5,0.5-7.3
		c0-0.5,0.1-0.8,0.1-1.2c0.1,0,0.2,0,0.4,0c4.9-0.6,7.4-5.5,8.3-7.8c0.2-0.3,0.4-0.5,0.5-0.6c0.8-1.6,5.4-1.5,8.3-0.8
		c2.1,0.5,2.1,2.6,1.9,3.7C-353.8,295.7-355.9,298.8-358.6,301.4z"/>
	<path d="M-379,274.9c-5.1,0-9.3,4-9.3,8.9c0,4.9,4.2,8.9,9.3,8.9c5.1,0,9.3-4,9.3-8.9C-369.7,278.8-373.9,274.9-379,274.9z"/>
</g>
</svg>
